<svg width="161" height="24" fill="none" xmlns="http://www.w3.org/2000/svg"><path d="M34.73 12.495c0 3.046 1.16 5.202 4.607 5.202 2.467 0 3.864-1.523 3.864-1.523l.208.747c.089.287.208.488.535.488h.564c.297 0 .565-.258.565-.546V6.46c0-.287-.267-.546-.565-.546h-.921c-.297 0-.565.259-.565.546v7.673s-1.278 1.638-3.536 1.638c-1.665 0-2.675-1.063-2.675-3.247V6.46c0-.287-.268-.546-.565-.546h-.95c-.298 0-.566.259-.566.546v6.035z" fill="#08BD80"/><path fill-rule="evenodd" clip-rule="evenodd" d="M66.001 10.11c-3.06 0-4.755 1.638-4.755 3.822 0 2.3 1.575 3.765 3.656 3.765 1.842 0 3.06-.89 3.685-1.494l.238.776c.089.258.178.43.505.43h.565c.297 0 .564-.258.564-.545v-6.38c0-3.363-.743-4.857-3.774-4.857-2.23 0-3.953.66-4.131.747-.268.115-.446.288-.327.632l.238.719c.089.259.267.402.564.287a10.764 10.764 0 013.567-.632c1.694 0 1.961.977 1.931 3.104 0 0-1.248-.374-2.526-.374zm-.773 5.863c-1.278 0-2.08-.891-2.08-2.04 0-1.495 1.188-2.3 2.853-2.3 1.307 0 2.14.259 2.496.46v2.27c-.505.719-1.783 1.61-3.269 1.61z" fill="#2D81F7"/><path d="M73.227 11.69c0 3.45 2.793 6.007 6.092 6.007 2.021 0 3.656-1.034 4.547-2.414.179-.287.09-.603-.208-.805l-.327-.23c-.327-.23-.535-.287-.891.058-.684.632-1.367 1.494-3.15 1.494-2.23 0-3.924-1.839-3.924-4.138 0-2.3 1.724-4.08 3.953-4.08 1.16 0 2.14.545 2.734 1.206.268.23.416.517.862.115l.565-.46c.267-.2.327-.546.119-.804-1.07-1.322-2.467-2.012-4.25-2.012-3.24 0-6.122 2.673-6.122 6.064z" fill="#2D81F7"/><path fill-rule="evenodd" clip-rule="evenodd" d="M91.48 10.11c-3.061 0-4.755 1.638-4.755 3.822 0 2.3 1.575 3.765 3.655 3.765a5.23 5.23 0 003.685-1.494l.238.776c.09.258.178.43.505.43h.565c.297 0 .565-.258.565-.545v-6.38c0-3.363-.743-4.857-3.775-4.857-2.229 0-3.952.66-4.13.747-.268.115-.447.288-.328.632l.238.719c.09.259.268.402.565.287a10.765 10.765 0 013.566-.632c1.694 0 1.962.977 1.932 3.104 0 0-1.248-.374-2.526-.374zm-.774 5.863c-1.278 0-2.08-.891-2.08-2.04 0-1.495 1.188-2.3 2.853-2.3 1.307 0 2.14.259 2.496.46v2.27c-.505.719-1.783 1.61-3.27 1.61zm13.705-10.347c-3.566 0-5.706 2.644-5.706 6.007 0 3.305 2.378 6.064 5.409 6.064 2.229 0 3.656-1.523 3.656-1.523l.178.775c.059.259.238.46.505.46h.624c.298 0 .565-.258.565-.546V.546c0-.287-.267-.546-.565-.546h-.921c-.297 0-.565.259-.565.546v5.828s-1.218-.748-3.18-.748zm-.09 10.26c-2.169 0-3.536-1.983-3.536-4.225 0-2.299 1.307-4.11 3.893-4.11 1.635 0 2.883.69 2.883.69v5.748s-1.1 1.897-3.24 1.897zm13.912-10.259c-3.596 0-5.825 2.788-5.825 6.035 0 3.305 2.229 6.035 5.825 6.035 2.051 0 3.656-.776 4.369-1.322.446-.316.327-.488.119-.747a46.457 46.457 0 01-.253-.33 29.739 29.739 0 00-.252-.331c-.217-.288-.385-.194-.728-.001l-.104.058c-.684.403-1.694.863-2.943.863-2.11 0-3.863-1.811-3.982-3.736h8.559a.54.54 0 00.535-.489c.03-.201.06-.575.06-.776 0-3.017-2.259-5.259-5.38-5.259zm3.327 4.914h-7.073c.208-1.782 1.754-3.161 3.745-3.161 1.813 0 3.239 1.494 3.328 3.161z" fill="#2D81F7"/><path d="M126.381 16.864c0 .287.267.546.565.546h.921c.297 0 .565-.259.565-.546V9.19s1.277-1.639 3.388-1.639c1.812 0 2.823 1.064 2.823 3.248v6.064c0 .287.267.546.565.546h.951c.297 0 .564-.259.564-.546V10.8c0-.604-.059-1.15-.148-1.638.416-.374 1.694-1.61 3.626-1.61 1.723 0 2.674 1.092 2.674 3.248v6.064c0 .287.268.546.565.546h.951c.297 0 .565-.259.565-.546V10.8c0-2.989-1.159-5.173-4.607-5.173-2.377 0-4.279 1.753-4.428 1.868-.773-1.207-2.051-1.868-3.804-1.868-2.467 0-3.864 1.523-3.864 1.523l-.267-.89c-.06-.23-.208-.346-.476-.346h-.564c-.298 0-.565.259-.565.546v10.404zm26.938.516l-2.407 5.902c-.208.402.03.718.475.718h1.1c.208 0 .416-.172.505-.345l7.727-17.08c.208-.374 0-.66-.446-.66h-1.129a.604.604 0 00-.505.315l-4.161 8.794-4.428-8.794a.568.568 0 00-.506-.316h-1.307c-.446 0-.624.259-.446.632l5.528 10.835z" fill="#2D81F7"/><path d="M47.838 16.864c0 .287.267.546.565.546h.92c.298 0 .566-.259.566-.546V9.19s1.604-1.639 3.833-1.639c1.665 0 2.675 1.064 2.675 3.248v6.064c0 .287.268.546.565.546h.95c.298 0 .566-.259.566-.546V10.8c0-2.989-1.16-5.173-4.607-5.173-2.467 0-4.16 1.523-4.16 1.523l-.268-.89c-.06-.23-.208-.346-.476-.346h-.564c-.298 0-.565.259-.565.546v10.404z" fill="#08BD80"/><path d="M.152 2.231C1.256 9.006 7.327 14.188 14.65 14.188c7.25 0 13.27-5.077 14.463-11.752.153-.626.216-1.127.197-1.556a.85.85 0 00-.87-.872H.873a.85.85 0 00-.87.871H0l.002.033c-.013.374.035.802.15 1.32z" fill="#2D81F7"/><path d="M21.856 22.867c-.553-3.388-3.588-5.979-7.25-5.979-3.624 0-6.635 2.54-7.231 5.876a2.794 2.794 0 00-.098.778c0 .246.182.436.434.436h13.784c.253 0 .435-.19.435-.435h.002l-.001-.017a2.7 2.7 0 00-.075-.66z" fill="#08BD80"/></svg>