<svg width="296" height="80" fill="none" xmlns="http://www.w3.org/2000/svg"><rect width="296" height="80" rx="8" fill="#fff"/><path fill="#F6F8FA" d="M112 16h160v24H112z"/><path fill="#EBEDEE" d="M112 52h67v12h-67z"/><rect x="32" y="16" width="48" height="48" rx="8" fill="#FFC370"/><path fill-rule="evenodd" clip-rule="evenodd" d="M68.673 33.355c.1.102.181.221.238.352.06.134.09.28.089.426v19.066c-.004.29-.123.568-.33.774-.209.205-.49.322-.784.326H44.114a1.137 1.137 0 01-.783-.326 1.107 1.107 0 01-.331-.774V26.8c.004-.29.123-.568.33-.773.209-.206.49-.323.784-.327h16.343a1.162 1.162 0 01.788.323l7.428 7.333zm-21.813-.38a2.933 2.933 0 012.933-2.933h.076a2.933 2.933 0 010 5.866h-.076a2.933 2.933 0 01-2.933-2.933zm13.056-3.558l5.943 5.867h-5.943v-5.867zm1.374 11.68H47.92c-.296 0-.58.116-.788.322a1.093 1.093 0 000 1.556c.209.206.492.322.788.322h13.37c.296 0 .58-.116.788-.322a1.093 1.093 0 000-1.556 1.122 1.122 0 00-.788-.322zm-13.37 5.865h8.914c.296 0 .579.116.788.322a1.093 1.093 0 010 1.556 1.122 1.122 0 01-.788.322H47.92a1.12 1.12 0 01-.788-.322 1.093 1.093 0 010-1.556c.209-.206.492-.322.788-.322z" fill="#fff"/></svg>