<svg width="296" height="80" fill="none" xmlns="http://www.w3.org/2000/svg"><rect width="296" height="80" rx="8" fill="#fff"/><path fill="#F6F8FA" d="M112 16h160v24H112z"/><path fill="#EBEDEE" d="M112 52h67v12h-67z"/><rect x="24" y="24" width="64" height="32" rx="4" fill="#EB5757"/><path d="M40.392 46h7.2v-1.728h-5.264V34.64h-1.936V46zm9.236 0h1.936V34.64h-1.936V46zm11.995-11.36L58.6 43.232h-.016l-2.992-8.592h-2.08L57.751 46h1.712l4.24-11.36h-2.08zM65.486 46h7.488v-1.728h-5.552v-3.04h4.208v-1.728h-4.208v-3.136h5.216V34.64h-7.152V46z" fill="#fff"/></svg>