<svg width="296" height="80" fill="none" xmlns="http://www.w3.org/2000/svg"><rect width="296" height="80" rx="8" fill="#fff"/><path fill="#F6F8FA" d="M112 16h160v24H112z"/><path fill="#EBEDEE" d="M112 52h67v12h-67z"/><path d="M80 40c0 13.255-10.745 24-24 24S32 53.255 32 40s10.745-24 24-24 24 10.745 24 24z" fill="#70AAFC"/><mask id="a" maskUnits="userSpaceOnUse" x="32" y="16" width="48" height="48"><path d="M80 40c0 13.255-10.745 24-24 24S32 53.255 32 40s10.745-24 24-24 24 10.745 24 24z" fill="#F0F5F6"/></mask><g mask="url(#a)"><path d="M65.282 31.473c0 4.758-3.888 8.616-8.683 8.616-4.796 0-8.683-3.858-8.683-8.616 0-4.758 3.887-8.616 8.683-8.616 4.795 0 8.683 3.858 8.683 8.616zM56.594 42.24c-13.284 0-24.245 9.866-25.847 22.616h51.694C80.838 52.106 69.877 42.24 56.594 42.24z" opacity=".8" fill="#2C65F8"/><path d="M62.013 55.576c.203 1.236 1.318 2.182 2.664 2.182 1.331 0 2.437-.927 2.656-2.145.028-.114.04-.206.037-.284 0-.09-.067-.16-.16-.16h-5.064c-.093 0-.16.07-.16.16v.006a.958.958 0 00.027.24zm3.983 3.766c-.102-.618-.66-1.091-1.332-1.091-.666 0-1.219.463-1.328 1.072a.504.504 0 00-.018.142c0 .045.033.08.08.08h2.532c.046 0 .08-.035.08-.08a.482.482 0 00-.014-.123z" fill="#70AAFC"/></g></svg>